# xmcd
#
# Track frame offsets: 
#        182
#        18150
#        39237
#
# Disc length: 717 seconds
#
# Revision: 0
# Processed by: cddbd v1.5.2PL0 Copyright (c) Steve Scherf et al.
# Submitted via: ExactAudioCopyFreeDBPlugin 1.0
#
DISCID=1402cb03
DTITLE=Christopher Cross - Been There, Done That
DYEAR=1994
DGENRE=Pop
TTITLE0=Been There, Done That (Radio Edit)
TTITLE1=Uncharted HEarts
TTITLE2=Jan's Tune
EXTD=
EXTT0=
EXTT1=
EXTT2=
PLAYORDER=
